<?xml version="1.0" encoding="UTF-8" standalone="no"?>
<!-- Created with Inkscape (http://www.inkscape.org/) -->

<svg
   width="210mm"
   height="297mm"
   viewBox="0 0 210 297"
   version="1.1"
   id="svg1"
   xml:space="preserve"
   inkscape:version="1.4.2 (f4327f4, 2025-05-13)"
   sodipodi:docname="Quixotic.svg"
   xmlns:inkscape="http://www.inkscape.org/namespaces/inkscape"
   xmlns:sodipodi="http://sodipodi.sourceforge.net/DTD/sodipodi-0.dtd"
   xmlns="http://www.w3.org/2000/svg"
   xmlns:svg="http://www.w3.org/2000/svg"><sodipodi:namedview
     id="namedview1"
     pagecolor="#ffffff"
     bordercolor="#000000"
     borderopacity="0.25"
     inkscape:showpageshadow="2"
     inkscape:pageopacity="0.0"
     inkscape:pagecheckerboard="0"
     inkscape:deskcolor="#d1d1d1"
     inkscape:document-units="mm"
     showguides="true"
     inkscape:zoom="0.71891835"
     inkscape:cx="173.87232"
     inkscape:cy="711.48553"
     inkscape:window-width="1920"
     inkscape:window-height="1009"
     inkscape:window-x="-8"
     inkscape:window-y="-8"
     inkscape:window-maximized="1"
     inkscape:current-layer="g83" /><defs
     id="defs1" /><g
     inkscape:label="Layer 1"
     inkscape:groupmode="layer"
     id="layer1"><path
       id="path1"
       style="fill:#1470a3;stroke:none;stroke-width:0.5;stroke-linecap:round;stroke-linejoin:round;stroke-dasharray:none;fill-opacity:0.99607843"
       d="M 104.87525 127.12557 L 72.085522 166.94175 C 94.162237 161.3033 115.89208 161.21634 137.27483 166.6813 L 104.87525 127.12557 z M 104.41998 167.72206 C 95.853873 167.72206 87.41795 168.80646 79.242192 170.97509 L 76.509542 232.13105 L 77.068164 232.13105 C 68.206573 233.44536 60.18819 235.40318 53.869063 237.98599 C 87.772962 233.9522 118.96462 234.03903 156.27212 238.11622 C 150.09285 235.4431 142.24113 233.45441 133.54172 232.13105 L 133.63112 232.13105 L 130.37861 170.97509 C 121.68238 168.80646 112.9861 167.72206 104.41998 167.72206 z M 104.81014 208.70974 L 104.81066 208.70974 C 108.43967 208.70962 111.38166 211.65139 111.38183 215.2804 C 111.38183 215.32704 111.38076 215.37374 111.37976 215.42044 L 111.37976 230.36165 C 106.49233 230.12861 102.74402 230.09107 98.240515 230.36165 L 98.240515 215.42044 C 98.239451 215.3738 98.238984 215.3271 98.238965 215.2804 C 98.239135 211.65139 101.18113 208.70963 104.81014 208.70974 z " /><circle
       style="fill:#005390;fill-opacity:0.99607843;stroke:none;stroke-width:15.61;stroke-linecap:butt;stroke-linejoin:miter;stroke-dasharray:none;stroke-opacity:1"
       id="path16"
       cx="105"
       cy="165.63962"
       r="7.2540874" /><g
       id="g16"
       transform="translate(0.58002068,11.986755)"><g
         id="g15"><path
           id="path4"
           style="baseline-shift:baseline;display:inline;overflow:visible;opacity:1;vector-effect:none;fill:#ffffff;stroke-linejoin:round;enable-background:accumulate;stop-color:#000000;stop-opacity:1"
           d="m 92.472909,137.46293 -4.244186,4.24212 10.306865,10.30738 a 6.1085162,6.1085162 0 0 1 4.243152,-4.24367 z m 23.894151,0 -10.30583,10.30583 a 6.1085162,6.1085162 0 0 1 4.24315,4.24367 l 10.30686,-10.30738 z m -17.830956,17.83147 -10.307381,10.30738 4.244186,4.24212 10.306861,-10.30687 a 6.1085162,6.1085162 0 0 1 -4.243666,-4.24263 z m 11.767756,0 a 6.1085162,6.1085162 0 0 1 -4.24367,4.24263 l 10.30687,10.30687 4.24418,-4.24212 z" /><g
           id="g12"
           style="fill:#ffffff;stroke:#ffffff;stroke-width:2;stroke-dasharray:none"><path
             id="rect9"
             inkscape:transform-center-y="2.0230488e-06"
             transform="rotate(45.000007)"
             d="m 116.03492,28.604416 h 49.85928 c 0.45481,0 0.82096,0.366146 0.82096,0.820955 v 10.775042 c 0,0.454809 -0.36615,0.820955 -0.82096,0.820955 h -49.85928 c -0.45481,0 -0.82095,-0.366146 -0.82095,-0.820955 V 29.425371 c 0,-0.454809 0.36614,-0.820955 0.82095,-0.820955 z" /><path
             id="rect10"
             inkscape:transform-center-x="5.5132927e-06"
             inkscape:transform-center-y="1.1954983e-05"
             transform="rotate(135.00001)"
             d="m -31.637258,-188.69353 h 49.859283 c 0.454809,0 0.820955,0.36615 0.820955,0.82096 v 10.77504 c 0,0.45481 -0.366146,0.82095 -0.820955,0.82095 h -49.859283 c -0.45481,0 -0.820956,-0.36614 -0.820956,-0.82095 v -10.77504 c 0,-0.45481 0.366146,-0.82096 0.820956,-0.82096 z" /><path
             id="rect11"
             inkscape:transform-center-x="1.5544239e-05"
             inkscape:transform-center-y="-9.0341493e-06"
             transform="rotate(-134.99999)"
             d="m -248.93519,-41.021336 h 49.85928 c 0.45481,0 0.82095,0.366147 0.82095,0.820956 v 10.775041 c 0,0.454809 -0.36614,0.820956 -0.82095,0.820956 h -49.85928 c -0.45481,0 -0.82096,-0.366147 -0.82096,-0.820956 V -40.20038 c 0,-0.454809 0.36615,-0.820956 0.82096,-0.820956 z" /><path
             id="rect12"
             inkscape:transform-center-x="-1.4127145e-05"
             inkscape:transform-center-y="-2.1172436e-05"
             transform="rotate(-44.99999)"
             d="m -101.26301,176.2766 h 49.859287 c 0.454809,0 0.820956,0.36614 0.820956,0.82095 v 10.77504 c 0,0.45481 -0.366147,0.82096 -0.820956,0.82096 h -49.859287 c -0.45481,0 -0.82095,-0.36615 -0.82095,-0.82096 v -10.77504 c 0,-0.45481 0.36614,-0.82095 0.82095,-0.82095 z" /></g></g><path
         style="baseline-shift:baseline;display:inline;overflow:visible;opacity:1;vector-effect:none;fill:#ffffff;enable-background:accumulate;stop-color:#000000;stop-opacity:1"
         d="m 104.41992,144.86719 c -4.830953,0 -8.785154,3.95416 -8.785154,8.78515 0,4.831 3.954201,8.78516 8.785154,8.78516 4.83096,0 8.78516,-3.95416 8.78516,-8.78516 0,-4.83099 -3.9542,-8.78515 -8.78516,-8.78515 z m 0,3.5 c 2.93935,0 5.28516,2.34569 5.28516,5.28515 0,2.93946 -2.34581,5.28516 -5.28516,5.28516 -2.93935,0 -5.285154,-2.3457 -5.285154,-5.28516 0,-2.93946 2.345804,-5.28515 5.285154,-5.28515 z"
         id="path14" /></g><g
       id="g36"><rect
         style="fill:#005391;fill-opacity:1;stroke:none;stroke-width:0.444274;stroke-linecap:butt;stroke-linejoin:miter;stroke-dasharray:none"
         id="rect5"
         width="51.501194"
         height="12.416952"
         x="124.10002"
         y="36.670193"
         ry="0.82095546"
         transform="rotate(45.000007)"
         inkscape:transform-center-y="2.0230488e-06" /><rect
         style="fill:#005391;fill-opacity:1;stroke:none;stroke-width:0.444274;stroke-linecap:butt;stroke-linejoin:miter;stroke-dasharray:none"
         id="rect6"
         width="51.501194"
         height="12.416952"
         x="-24.392437"
         y="-197.57959"
         ry="0.82095546"
         transform="rotate(135.00001)"
         inkscape:transform-center-y="1.1954983e-05"
         inkscape:transform-center-x="5.5132927e-06" /><rect
         style="fill:#005391;fill-opacity:1;stroke:none;stroke-width:0.444274;stroke-linecap:butt;stroke-linejoin:miter;stroke-dasharray:none"
         id="rect7"
         width="51.501194"
         height="12.416952"
         x="-258.64221"
         y="-49.087112"
         ry="0.82095546"
         transform="rotate(-134.99999)"
         inkscape:transform-center-y="-9.0341493e-06"
         inkscape:transform-center-x="1.5544239e-05" /><rect
         style="fill:#005391;fill-opacity:1;stroke:none;stroke-width:0.444274;stroke-linecap:butt;stroke-linejoin:miter;stroke-dasharray:none"
         id="rect8"
         width="51.501194"
         height="12.416952"
         x="-110.14973"
         y="185.16264"
         ry="0.82095546"
         transform="rotate(-44.99999)"
         inkscape:transform-center-y="-2.1172436e-05"
         inkscape:transform-center-x="-1.4127145e-05" /></g><g
       id="g35"
       transform="matrix(1.0365917,-0.03659175,-0.03659175,1.0365917,-1.3803957,1.3384927)"><rect
         style="fill:#1fa3e4;fill-opacity:1;stroke:none;stroke-width:7;stroke-linecap:butt;stroke-linejoin:miter;stroke-dasharray:none;stroke-opacity:1"
         id="rect20"
         width="5.2444234"
         height="5.2444234"
         x="185.82141"
         y="-17.874147"
         ry="0"
         transform="rotate(45)" /></g><g
       id="g51"
       transform="matrix(1.0365917,-0.03659175,-0.03659175,1.0365917,-60.08831,60.088071)"><rect
         style="fill:#1fa3e4;fill-opacity:1;stroke:none;stroke-width:7;stroke-linecap:butt;stroke-linejoin:miter;stroke-dasharray:none;stroke-opacity:1"
         id="rect45"
         width="5.2444234"
         height="5.2444234"
         x="191.67673"
         y="-6.1228514"
         ry="0"
         transform="rotate(45)" /><rect
         style="fill:#1fa3e4;fill-opacity:1;stroke:none;stroke-width:7;stroke-linecap:butt;stroke-linejoin:miter;stroke-dasharray:none;stroke-opacity:1"
         id="rect50"
         width="5.2444234"
         height="5.2444234"
         x="185.82141"
         y="11.520017"
         ry="0"
         transform="rotate(45)" /></g><g
       id="g83"
       transform="matrix(0.03659175,1.0365917,-1.0365917,-0.03659175,210.53071,0.54138539)"><rect
         style="fill:#1fa3e4;fill-opacity:1;stroke:none;stroke-width:7;stroke-linecap:butt;stroke-linejoin:miter;stroke-dasharray:none;stroke-opacity:1"
         id="rect75"
         width="5.2444234"
         height="5.2444234"
         x="191.67673"
         y="-0.23127937"
         ry="0"
         transform="rotate(45)" /><rect
         style="fill:#1fa3e4;fill-opacity:1;stroke:none;stroke-width:7;stroke-linecap:butt;stroke-linejoin:miter;stroke-dasharray:none;stroke-opacity:1"
         id="rect79"
         width="5.2444234"
         height="5.2444234"
         x="191.67673"
         y="5.6602926"
         ry="0"
         transform="rotate(45)" /></g></g></svg>
