<?xml version="1.0" encoding="UTF-8" standalone="no"?>
<!-- Created with Inkscape (http://www.inkscape.org/) -->

<svg
   width="125mm"
   height="128mm"
   viewBox="0 0 125 128"
   version="1.1"
   id="svg1"
   xml:space="preserve"
   inkscape:version="1.4.2 (f4327f4, 2025-05-13)"
   sodipodi:docname="Quixotic2.svg"
   xmlns:inkscape="http://www.inkscape.org/namespaces/inkscape"
   xmlns:sodipodi="http://sodipodi.sourceforge.net/DTD/sodipodi-0.dtd"
   xmlns="http://www.w3.org/2000/svg"
   xmlns:svg="http://www.w3.org/2000/svg"><sodipodi:namedview
     id="namedview1"
     pagecolor="#ffffff"
     bordercolor="#000000"
     borderopacity="0.25"
     inkscape:showpageshadow="2"
     inkscape:pageopacity="0.0"
     inkscape:pagecheckerboard="0"
     inkscape:deskcolor="#d1d1d1"
     inkscape:document-units="mm"
     showguides="true"
     inkscape:zoom="1.0167041"
     inkscape:cx="-109.6681"
     inkscape:cy="149.01091"
     inkscape:window-width="1920"
     inkscape:window-height="1009"
     inkscape:window-x="-8"
     inkscape:window-y="-8"
     inkscape:window-maximized="1"
     inkscape:current-layer="layer1" /><defs
     id="defs1" /><g
     inkscape:label="Layer 1"
     inkscape:groupmode="layer"
     id="layer1"
     transform="translate(-53.381403,-114.02102)"><path
       id="path1"
       style="fill:#1470a3;fill-opacity:0.996078;stroke:none;stroke-width:0.5;stroke-linecap:round;stroke-linejoin:round;stroke-dasharray:none"
       d="m 115.75665,141.04894 -32.789728,31.74885 c 22.076718,-5.63845 43.806558,-5.72541 65.189308,-0.26045 z m -0.45527,32.52916 c -8.5661,0 -17.00203,1.0844 -25.177788,3.25303 l -2.651001,59.33385 h 21.649329 v -14.8885 c -0.001,-0.0466 -0.002,-0.0933 -0.002,-0.14004 1.7e-4,-3.62901 2.94216,-6.57077 6.57117,-6.57066 h 5.2e-4 c 3.62901,-1.2e-4 6.571,2.94165 6.57117,6.57066 0,0.0466 -0.001,0.0933 -0.002,0.14004 v 14.8885 h 22.15421 l -3.15536,-59.33385 C 132.5634,174.6625 123.86712,173.5781 115.301,173.5781 Z"
       sodipodi:nodetypes="ccccscccccsssccccs" /><circle
       style="fill:#005390;fill-opacity:0.996078;stroke:none;stroke-width:22.2311;stroke-linecap:butt;stroke-linejoin:miter;stroke-dasharray:none;stroke-opacity:1"
       id="path16"
       cx="115.88142"
       cy="171.49586"
       r="10.330972" /><g
       id="g16"
       transform="translate(11.461421,17.842795)"><g
         id="g15"><path
           id="path4"
           style="baseline-shift:baseline;display:inline;overflow:visible;opacity:1;vector-effect:none;fill:#ffffff;stroke-linejoin:round;enable-background:accumulate;stop-color:#000000;stop-opacity:1"
           d="m 92.472909,137.46293 -4.244186,4.24212 10.306865,10.30738 c 0.574171,-2.0597 2.183522,-3.66925 4.243152,-4.24367 z m 23.894151,0 -10.30583,10.30583 c 2.05963,0.57442 3.66898,2.18397 4.24315,4.24367 l 10.30686,-10.30738 z m -17.830956,17.83147 -10.307381,10.30738 4.244186,4.24212 10.306861,-10.30687 c -2.05957,-0.57408 -3.669087,-2.1832 -4.243666,-4.24263 z m 11.767756,0 c -0.57458,2.05943 -2.1841,3.66855 -4.24367,4.24263 l 10.30687,10.30687 4.24418,-4.24212 z"
           sodipodi:nodetypes="cccccccccccccccccccc" /><g
           id="g12"
           style="fill:#ffffff;stroke:#ffffff;stroke-width:2;stroke-dasharray:none" /></g><path
         style="baseline-shift:baseline;display:inline;overflow:visible;opacity:1;vector-effect:none;fill:#ffffff;enable-background:accumulate;stop-color:#000000;stop-opacity:1"
         d="m 104.41992,144.86719 c -4.830953,0 -8.785154,3.95416 -8.785154,8.78515 0,4.831 3.954201,8.78516 8.785154,8.78516 4.83096,0 8.78516,-3.95416 8.78516,-8.78516 0,-4.83099 -3.9542,-8.78515 -8.78516,-8.78515 z m 0,3.5 c 2.93935,0 5.28516,2.34569 5.28516,5.28515 0,2.93946 -2.34581,5.28516 -5.28516,5.28516 -2.93935,0 -5.285154,-2.3457 -5.285154,-5.28516 0,-2.93946 2.345804,-5.28515 5.285154,-5.28515 z"
         id="path14" /><path
         style="baseline-shift:baseline;display:inline;overflow:visible;opacity:1;vector-effect:none;fill:#ffffff;stroke-width:1.42416;enable-background:accumulate;stop-color:#000000;stop-opacity:1"
         d="m 104.41992,141.14089 c -6.880045,0 -12.511455,5.63135 -12.511455,12.51145 0,6.88011 5.63141,12.51146 12.511455,12.51146 6.88005,0 12.51146,-5.63135 12.51146,-12.51146 0,-6.8801 -5.63141,-12.51145 -12.51146,-12.51145 z m 0,4.98456 c 4.1861,0 7.52691,3.34063 7.52691,7.52689 0,4.18626 -3.34081,7.5269 -7.52691,7.5269 -4.1861,0 -7.5269,-3.34064 -7.5269,-7.5269 0,-4.18626 3.3408,-7.52689 7.5269,-7.52689 z"
         id="path83" /></g><g
       id="g36"
       transform="translate(10.8814,5.8560399)"><rect
         style="fill:#005391;fill-opacity:1;stroke:none;stroke-width:0.444274;stroke-linecap:butt;stroke-linejoin:miter;stroke-dasharray:none"
         id="rect5"
         width="51.501194"
         height="12.416952"
         x="124.10002"
         y="36.670193"
         ry="0.82095546"
         transform="rotate(45.000007)"
         inkscape:transform-center-y="2.0230488e-06" /><rect
         style="fill:#005391;fill-opacity:1;stroke:none;stroke-width:0.444274;stroke-linecap:butt;stroke-linejoin:miter;stroke-dasharray:none"
         id="rect6"
         width="51.501194"
         height="12.416952"
         x="-24.392437"
         y="-197.57959"
         ry="0.82095546"
         transform="rotate(135.00001)"
         inkscape:transform-center-y="1.1954983e-05"
         inkscape:transform-center-x="5.5132927e-06" /><rect
         style="fill:#005391;fill-opacity:1;stroke:none;stroke-width:0.444274;stroke-linecap:butt;stroke-linejoin:miter;stroke-dasharray:none"
         id="rect7"
         width="51.501194"
         height="12.416952"
         x="-258.64221"
         y="-49.087112"
         ry="0.82095546"
         transform="rotate(-134.99999)"
         inkscape:transform-center-y="-9.0341493e-06"
         inkscape:transform-center-x="1.5544239e-05" /><rect
         style="fill:#005391;fill-opacity:1;stroke:none;stroke-width:0.444274;stroke-linecap:butt;stroke-linejoin:miter;stroke-dasharray:none"
         id="rect8"
         width="51.501194"
         height="12.416952"
         x="-110.14973"
         y="185.16264"
         ry="0.82095546"
         transform="rotate(-44.99999)"
         inkscape:transform-center-y="-2.1172436e-05"
         inkscape:transform-center-x="-1.4127145e-05" /></g><g
       id="g35"
       transform="matrix(1.0365917,-0.03659175,-0.03659175,1.0365917,9.5010047,7.1945326)"><rect
         style="fill:#1fa3e4;fill-opacity:1;stroke:none;stroke-width:7;stroke-linecap:butt;stroke-linejoin:miter;stroke-dasharray:none;stroke-opacity:1"
         id="rect20"
         width="5.2444234"
         height="5.2444234"
         x="185.82141"
         y="-17.874147"
         ry="0"
         transform="rotate(45)" /></g><g
       id="g51"
       transform="matrix(1.0365917,-0.03659175,-0.03659175,1.0365917,-49.20691,65.944111)"><rect
         style="fill:#1fa3e4;fill-opacity:1;stroke:none;stroke-width:7;stroke-linecap:butt;stroke-linejoin:miter;stroke-dasharray:none;stroke-opacity:1"
         id="rect45"
         width="5.2444234"
         height="5.2444234"
         x="191.67673"
         y="-6.1228514"
         ry="0"
         transform="rotate(45)" /><rect
         style="fill:#1fa3e4;fill-opacity:1;stroke:none;stroke-width:7;stroke-linecap:butt;stroke-linejoin:miter;stroke-dasharray:none;stroke-opacity:1"
         id="rect50"
         width="5.2444234"
         height="5.2444234"
         x="185.82141"
         y="11.520017"
         ry="0"
         transform="rotate(45)" /></g><g
       id="g83"
       transform="matrix(0.03659175,1.0365917,-1.0365917,-0.03659175,221.41211,6.3974253)"><rect
         style="fill:#1fa3e4;fill-opacity:1;stroke:none;stroke-width:7;stroke-linecap:butt;stroke-linejoin:miter;stroke-dasharray:none;stroke-opacity:1"
         id="rect75"
         width="5.2444234"
         height="5.2444234"
         x="191.67673"
         y="-0.23127937"
         ry="0"
         transform="rotate(45)" /><rect
         style="fill:#1fa3e4;fill-opacity:1;stroke:none;stroke-width:7;stroke-linecap:butt;stroke-linejoin:miter;stroke-dasharray:none;stroke-opacity:1"
         id="rect79"
         width="5.2444234"
         height="5.2444234"
         x="191.67673"
         y="5.6602926"
         ry="0"
         transform="rotate(45)" /></g><path
       id="circle83"
       style="fill:#005390;fill-opacity:0.996078;stroke-width:15.3015"
       d="m 122.99213,171.49587 a 7.1107116,7.1107116 0 0 1 -7.11071,7.11071 7.1107116,7.1107116 0 0 1 -7.11071,-7.11071 7.1107116,7.1107116 0 0 1 7.11071,-7.11071 7.1107116,7.1107116 0 0 1 7.11071,7.11071 z" /></g></svg>
